<?xml version="1.0" encoding="UTF-8" ?>
<!DOCTYPE svg PUBLIC "-//W3C//DTD SVG 1.1//EN" "http://www.w3.org/Graphics/SVG/1.1/DTD/svg11.dtd">
<svg width="465pt" height="479pt" viewBox="0 0 465 479" version="1.1" xmlns="http://www.w3.org/2000/svg">
<g id="#ffffffff">
<path fill="#ffffff" opacity="1.00" d=" M 230.36 10.34 C 247.23 7.77 265.49 13.20 277.55 25.45 C 281.81 29.67 285.30 34.59 288.22 39.81 C 289.68 42.92 293.35 43.46 296.17 44.76 C 312.50 51.10 325.16 65.77 329.23 82.79 C 333.23 96.72 330.51 111.95 323.47 124.45 C 315.87 137.31 303.12 147.24 288.44 150.49 C 275.60 153.95 261.75 151.88 249.84 146.25 C 240.09 141.47 232.44 133.35 226.49 124.42 C 225.69 122.49 223.83 123.89 223.24 125.17 C 217.59 133.42 210.27 140.72 201.25 145.19 C 189.12 150.91 174.96 152.71 161.94 149.14 C 148.24 146.00 136.41 136.92 128.72 125.30 C 120.70 112.44 117.61 96.33 121.61 81.58 C 126.36 61.78 142.83 45.42 162.64 40.77 C 170.90 38.67 179.51 39.22 187.90 40.06 C 189.85 38.58 190.92 36.29 192.30 34.32 C 200.78 21.38 214.98 12.31 230.36 10.34 Z" />
<path fill="#ffffff" opacity="1.00" d=" M 235.15 162.33 C 249.37 159.94 263.88 161.88 277.81 165.09 C 290.63 168.08 302.03 174.99 313.01 182.00 C 314.84 183.16 316.62 184.69 317.02 186.95 C 322.03 206.19 319.70 227.19 311.05 245.05 C 308.69 250.48 303.71 255.00 303.82 261.28 C 303.61 269.47 303.01 278.84 308.31 285.70 C 311.90 290.50 318.29 291.25 322.68 294.94 C 322.36 295.27 321.73 295.91 321.41 296.23 C 314.24 297.80 306.52 297.84 299.52 295.43 C 292.95 293.23 286.05 289.94 282.96 283.32 C 282.18 281.94 281.43 280.54 280.68 279.15 C 270.81 284.64 260.33 289.36 249.05 290.87 C 228.35 294.35 206.64 289.71 188.95 278.50 C 188.32 279.63 187.70 280.77 187.07 281.90 C 185.32 285.05 183.25 288.17 180.25 290.27 C 170.82 296.59 158.76 298.98 147.71 296.16 C 147.53 295.66 147.18 294.66 147.00 294.16 C 152.14 290.98 158.85 289.65 162.13 284.08 C 166.39 276.61 165.89 267.57 165.42 259.27 C 165.49 253.97 161.85 249.86 159.67 245.34 C 151.60 229.33 149.20 210.67 152.17 193.04 C 152.75 189.95 153.02 186.61 154.79 183.92 C 163.45 180.60 172.41 178.02 181.27 175.27 C 199.17 170.72 216.89 165.30 235.15 162.33 M 196.02 175.07 C 191.04 176.75 187.67 181.11 185.97 185.93 C 188.73 183.28 191.39 180.34 195.08 178.99 C 200.75 176.33 207.11 176.71 213.20 176.71 C 207.87 174.29 201.68 173.38 196.02 175.07 M 255.64 176.89 C 261.13 177.40 266.84 176.89 272.08 178.95 C 275.72 180.35 278.35 183.32 281.20 185.83 C 280.23 183.32 279.27 180.65 277.14 178.87 C 271.53 173.30 262.32 173.37 255.64 176.89 M 226.58 188.53 C 221.96 190.00 218.57 193.76 216.73 198.15 C 206.58 199.24 196.47 201.74 187.36 206.42 C 178.99 210.68 173.36 219.08 170.94 227.99 C 166.63 241.97 169.19 256.73 168.68 271.08 C 168.45 276.18 167.77 281.53 164.86 285.86 C 162.54 289.30 158.92 291.46 155.62 293.83 C 163.20 294.26 171.04 292.67 177.38 288.38 C 183.67 283.88 186.69 276.21 187.63 268.77 C 188.94 259.76 188.64 249.84 194.04 242.05 C 196.57 238.02 201.78 239.47 205.59 240.31 C 214.79 242.82 225.56 241.02 232.61 234.36 C 228.47 228.30 226.79 220.87 227.67 213.60 C 228.21 213.61 229.28 213.64 229.82 213.65 C 229.91 219.23 229.86 225.16 232.88 230.10 C 237.39 238.20 247.20 241.56 256.03 241.42 C 261.51 241.25 267.19 238.46 272.57 240.35 C 278.37 244.80 278.92 252.95 280.13 259.63 C 280.82 268.96 281.78 279.29 288.67 286.34 C 295.15 292.45 304.51 294.54 313.20 294.07 C 310.26 291.96 307.07 290.07 304.78 287.21 C 302.01 283.74 300.71 279.31 300.38 274.93 C 299.35 260.48 302.07 245.79 298.72 231.53 C 296.73 222.12 291.74 212.79 283.35 207.66 C 274.84 202.67 265.12 200.34 255.49 198.64 C 254.18 195.51 252.61 192.24 249.58 190.44 C 242.76 186.28 234.00 185.64 226.58 188.53 Z" />
</g>
<g id="#736767ff">
<path fill="#736767" opacity="1.00" d=" M 209.79 13.92 C 222.77 7.08 238.31 4.48 252.58 8.50 C 265.55 11.48 277.17 19.26 285.19 29.83 C 287.67 32.77 289.25 36.35 291.73 39.28 C 293.63 40.55 295.86 41.20 297.95 42.09 C 313.73 48.61 326.06 62.46 331.34 78.64 C 333.51 84.44 333.66 90.68 334.30 96.77 C 335.89 97.08 337.49 97.41 339.08 97.76 C 337.44 97.75 335.80 97.80 334.17 97.84 C 333.40 109.34 330.12 120.83 323.21 130.20 C 320.00 135.23 315.17 138.83 311.19 143.18 C 309.54 144.68 310.81 147.04 311.03 148.89 C 314.41 160.49 316.59 172.40 320.00 184.00 C 325.19 202.61 323.81 222.77 316.73 240.70 C 313.59 248.17 309.95 255.77 303.82 261.28 C 303.71 255.00 308.69 250.48 311.05 245.05 C 319.70 227.19 322.03 206.19 317.02 186.95 C 316.62 184.69 314.84 183.16 313.01 182.00 C 302.03 174.99 290.63 168.08 277.81 165.09 C 263.88 161.88 249.37 159.94 235.15 162.33 C 216.89 165.30 199.17 170.72 181.27 175.27 C 172.41 178.02 163.45 180.60 154.79 183.92 C 153.02 186.61 152.75 189.95 152.17 193.04 C 149.20 210.67 151.60 229.33 159.67 245.34 C 161.85 249.86 165.49 253.97 165.42 259.27 C 159.96 255.46 157.51 249.05 154.73 243.29 C 148.59 228.21 145.53 211.47 148.24 195.27 C 149.26 187.71 152.00 180.49 152.70 172.88 C 153.41 165.32 154.00 157.75 154.54 150.18 C 141.25 144.69 129.64 134.71 123.33 121.67 C 119.83 114.87 118.20 107.34 116.86 99.87 C 116.12 99.87 114.65 99.87 113.92 99.87 C 114.84 99.51 115.76 99.15 116.69 98.79 C 116.44 83.09 121.28 66.83 132.37 55.38 C 141.73 44.91 155.02 38.08 169.03 36.80 C 174.97 35.98 180.97 36.41 186.92 36.81 C 192.55 27.49 200.25 19.28 209.79 13.92 M 230.36 10.34 C 214.98 12.31 200.78 21.38 192.30 34.32 C 190.92 36.29 189.85 38.58 187.90 40.06 C 179.51 39.22 170.90 38.67 162.64 40.77 C 142.83 45.42 126.36 61.78 121.61 81.58 C 117.61 96.33 120.70 112.44 128.72 125.30 C 136.41 136.92 148.24 146.00 161.94 149.14 C 174.96 152.71 189.12 150.91 201.25 145.19 C 210.27 140.72 217.59 133.42 223.24 125.17 C 223.83 123.89 225.69 122.49 226.49 124.42 C 232.44 133.35 240.09 141.47 249.84 146.25 C 261.75 151.88 275.60 153.95 288.44 150.49 C 303.12 147.24 315.87 137.31 323.47 124.45 C 330.51 111.95 333.23 96.72 329.23 82.79 C 325.16 65.77 312.50 51.10 296.17 44.76 C 293.35 43.46 289.68 42.92 288.22 39.81 C 285.30 34.59 281.81 29.67 277.55 25.45 C 265.49 13.20 247.23 7.77 230.36 10.34 M 206.58 145.56 C 192.02 154.41 173.73 156.15 157.52 151.23 C 156.95 160.85 155.32 170.39 155.10 180.04 C 165.45 176.20 176.16 173.50 186.84 170.76 C 200.52 166.83 214.44 163.81 228.22 160.26 C 243.53 156.39 259.65 157.56 274.89 161.13 C 289.93 164.62 303.69 172.02 316.60 180.29 C 313.74 168.80 310.75 157.35 307.69 145.91 C 301.22 148.95 294.86 152.47 287.76 153.79 C 273.81 157.00 258.76 154.68 246.27 147.73 C 237.61 143.18 230.94 135.76 225.08 128.09 C 219.88 134.83 213.93 141.16 206.58 145.56 Z" />
</g>
<g id="#4d3d3dff">
<path fill="#4d3d3d" opacity="1.00" d=" M 334.17 97.84 C 335.80 97.80 337.44 97.75 339.08 97.76 C 356.66 99.59 374.15 102.22 391.60 105.02 C 375.00 171.82 357.89 238.51 341.20 305.30 C 339.61 311.01 338.59 316.92 336.45 322.47 C 300.95 336.28 266.68 353.72 235.95 376.38 C 204.11 353.70 168.91 335.96 132.24 322.57 C 120.95 278.99 110.28 235.25 99.20 191.62 C 92.13 162.72 84.46 133.95 77.65 104.99 C 89.72 103.13 101.76 101.00 113.92 99.87 C 114.65 99.87 116.12 99.87 116.86 99.87 C 118.20 107.34 119.83 114.87 123.33 121.67 C 129.64 134.71 141.25 144.69 154.54 150.18 C 154.00 157.75 153.41 165.32 152.70 172.88 C 152.00 180.49 149.26 187.71 148.24 195.27 C 145.53 211.47 148.59 228.21 154.73 243.29 C 157.51 249.05 159.96 255.46 165.42 259.27 C 165.89 267.57 166.39 276.61 162.13 284.08 C 158.85 289.65 152.14 290.98 147.00 294.16 C 147.18 294.66 147.53 295.66 147.71 296.16 C 158.76 298.98 170.82 296.59 180.25 290.27 C 183.25 288.17 185.32 285.05 187.07 281.90 C 192.95 284.76 198.59 288.20 204.83 290.24 C 217.05 294.37 230.12 296.66 243.01 295.25 C 254.80 293.88 266.63 290.95 277.01 285.04 C 278.87 284.09 280.95 283.78 282.96 283.32 C 286.05 289.94 292.95 293.23 299.52 295.43 C 306.52 297.84 314.24 297.80 321.41 296.23 C 321.73 295.91 322.36 295.27 322.68 294.94 C 318.29 291.25 311.90 290.50 308.31 285.70 C 303.01 278.84 303.61 269.47 303.82 261.28 C 309.95 255.77 313.59 248.17 316.73 240.70 C 323.81 222.77 325.19 202.61 320.00 184.00 C 316.59 172.40 314.41 160.49 311.03 148.89 C 310.81 147.04 309.54 144.68 311.19 143.18 C 315.17 138.83 320.00 135.23 323.21 130.20 C 330.12 120.83 333.40 109.34 334.17 97.84 Z" />
</g>
<g id="#fefefeff">
<path fill="#fefefe" opacity="1.00" d=" M 206.58 145.56 C 213.93 141.16 219.88 134.83 225.08 128.09 C 230.94 135.76 237.61 143.18 246.27 147.73 C 258.76 154.68 273.81 157.00 287.76 153.79 C 294.86 152.47 301.22 148.95 307.69 145.91 C 310.75 157.35 313.74 168.80 316.60 180.29 C 303.69 172.02 289.93 164.62 274.89 161.13 C 259.65 157.56 243.53 156.39 228.22 160.26 C 214.44 163.81 200.52 166.83 186.84 170.76 C 176.16 173.50 165.45 176.20 155.10 180.04 C 155.32 170.39 156.95 160.85 157.52 151.23 C 173.73 156.15 192.02 154.41 206.58 145.56 Z" />
<path fill="#fefefe" opacity="1.00" d=" M 229.39 190.48 C 235.37 188.68 242.12 189.36 247.55 192.48 C 250.83 194.61 253.80 198.84 252.11 202.85 C 250.19 207.74 244.85 210.17 239.92 210.64 C 235.05 211.06 229.84 210.98 225.48 208.50 C 222.29 206.89 219.80 203.61 219.62 199.99 C 220.18 194.97 224.76 191.59 229.39 190.48 Z" />
</g>
<g id="#726868ff">
<path fill="#726868" opacity="1.00" d=" M 196.02 175.07 C 201.68 173.38 207.87 174.29 213.20 176.71 C 207.11 176.71 200.75 176.33 195.08 178.99 C 191.39 180.34 188.73 183.28 185.97 185.93 C 187.67 181.11 191.04 176.75 196.02 175.07 Z" />
</g>
<g id="#726969ff">
<path fill="#726969" opacity="1.00" d=" M 255.64 176.89 C 262.32 173.37 271.53 173.30 277.14 178.87 C 279.27 180.65 280.23 183.32 281.20 185.83 C 278.35 183.32 275.72 180.35 272.08 178.95 C 266.84 176.89 261.13 177.40 255.64 176.89 Z" />
</g>
<g id="#746464ff">
<path fill="#746464" opacity="1.00" d=" M 226.58 188.53 C 234.00 185.64 242.76 186.28 249.58 190.44 C 252.61 192.24 254.18 195.51 255.49 198.64 C 265.12 200.34 274.84 202.67 283.35 207.66 C 291.74 212.79 296.73 222.12 298.72 231.53 C 302.07 245.79 299.35 260.48 300.38 274.93 C 300.71 279.31 302.01 283.74 304.78 287.21 C 307.07 290.07 310.26 291.96 313.20 294.07 C 304.51 294.54 295.15 292.45 288.67 286.34 C 281.78 279.29 280.82 268.96 280.13 259.63 C 278.92 252.95 278.37 244.80 272.57 240.35 C 267.19 238.46 261.51 241.25 256.03 241.42 C 247.20 241.56 237.39 238.20 232.88 230.10 C 229.86 225.16 229.91 219.23 229.82 213.65 C 229.28 213.64 228.21 213.61 227.67 213.60 C 226.79 220.87 228.47 228.30 232.61 234.36 C 225.56 241.02 214.79 242.82 205.59 240.31 C 201.78 239.47 196.57 238.02 194.04 242.05 C 188.64 249.84 188.94 259.76 187.63 268.77 C 186.69 276.21 183.67 283.88 177.38 288.38 C 171.04 292.67 163.20 294.26 155.62 293.83 C 158.92 291.46 162.54 289.30 164.86 285.86 C 167.77 281.53 168.45 276.18 168.68 271.08 C 169.19 256.73 166.63 241.97 170.94 227.99 C 173.36 219.08 178.99 210.68 187.36 206.42 C 196.47 201.74 206.58 199.24 216.73 198.15 C 218.57 193.76 221.96 190.00 226.58 188.53 M 229.39 190.48 C 224.76 191.59 220.18 194.97 219.62 199.99 C 219.80 203.61 222.29 206.89 225.48 208.50 C 229.84 210.98 235.05 211.06 239.92 210.64 C 244.85 210.17 250.19 207.74 252.11 202.85 C 253.80 198.84 250.83 194.61 247.55 192.48 C 242.12 189.36 235.37 188.68 229.39 190.48 Z" />
</g>
<g id="#726464ff">
<path fill="#726464" opacity="1.00" d=" M 187.07 281.90 C 187.70 280.77 188.32 279.63 188.95 278.50 C 206.64 289.71 228.35 294.35 249.05 290.87 C 260.33 289.36 270.81 284.64 280.68 279.15 C 281.43 280.54 282.18 281.94 282.96 283.32 C 280.95 283.78 278.87 284.09 277.01 285.04 C 266.63 290.95 254.80 293.88 243.01 295.25 C 230.12 296.66 217.05 294.37 204.83 290.24 C 198.59 288.20 192.95 284.76 187.07 281.90 Z" />
</g>
<g id="#4d403fff">
<path fill="#4d403f" opacity="1.00" d=" M 174.50 420.99 C 174.34 418.52 174.79 413.97 178.40 415.50 C 178.86 425.09 178.24 434.70 178.37 444.30 C 183.36 440.33 187.13 434.94 192.57 431.54 C 193.95 430.41 195.60 431.42 197.08 431.70 C 193.52 436.23 188.51 439.21 184.46 443.23 C 184.92 445.45 188.40 445.43 189.50 447.48 C 192.70 452.27 195.30 457.52 199.27 461.78 C 197.42 462.08 195.40 462.51 193.82 461.18 C 189.64 457.70 189.08 451.60 185.04 448.03 C 183.07 446.09 179.05 446.39 178.19 449.29 C 177.32 453.57 177.99 458.01 177.55 462.35 C 176.33 462.10 173.44 463.26 173.70 461.10 C 173.31 447.73 174.74 434.37 174.50 420.99 Z" />
</g>
<g id="#4b3f3eff">
<path fill="#4b3f3e" opacity="1.00" d=" M 150.50 431.75 C 155.26 430.44 160.93 432.01 163.71 436.26 C 168.05 442.22 168.84 451.13 164.06 457.09 C 159.89 462.87 150.74 464.22 145.12 459.85 C 140.83 455.47 141.04 448.59 142.10 442.97 C 142.81 438.19 145.54 433.12 150.50 431.75 M 151.47 434.49 C 148.56 436.03 147.36 439.40 146.60 442.41 C 145.35 447.26 145.05 452.79 147.75 457.23 C 149.55 460.09 153.44 460.16 156.36 459.34 C 160.24 457.56 162.92 453.32 162.72 449.03 C 163.13 444.03 161.57 438.70 157.76 435.29 C 156.09 433.74 153.51 434.08 151.47 434.49 Z" />
</g>
<g id="#4c3f3eff">
<path fill="#4c3f3e" opacity="1.00" d=" M 211.00 433.04 C 213.06 430.26 218.05 430.02 219.93 433.10 C 221.68 435.72 222.15 438.91 222.46 441.98 C 223.29 438.03 224.37 432.72 229.06 431.81 C 231.52 430.88 234.28 432.53 234.93 435.01 C 237.18 442.59 234.01 450.83 236.73 458.32 C 237.77 461.56 241.68 460.16 244.23 460.68 C 241.09 461.83 237.10 463.48 234.40 460.55 C 228.54 452.90 234.56 442.22 230.11 434.22 C 228.21 434.48 227.58 436.67 226.91 438.18 C 224.82 444.90 223.96 451.94 223.29 458.92 C 223.36 460.91 221.04 461.38 219.67 462.11 C 217.36 452.97 220.13 443.24 216.74 434.30 C 215.55 434.25 214.37 434.21 213.19 434.18 C 209.30 442.81 209.32 452.46 207.64 461.62 C 206.53 461.73 205.42 461.86 204.32 461.99 C 203.43 453.14 203.36 444.24 203.40 435.35 C 204.17 435.27 205.70 435.11 206.46 435.03 C 206.65 438.24 206.73 441.45 206.78 444.66 C 206.85 444.66 207.00 444.67 207.07 444.67 C 207.58 440.60 208.62 436.44 211.00 433.04 Z" />
</g>
<g id="#4c3f40ff">
<path fill="#4c3f40" opacity="1.00" d=" M 255.73 431.79 C 259.76 430.58 265.82 431.30 267.15 436.03 C 267.97 440.82 264.62 445.31 260.59 447.52 C 256.88 450.00 252.30 449.77 248.06 450.21 C 248.52 452.44 248.59 454.99 250.28 456.73 C 253.71 460.42 260.10 460.04 263.57 456.60 C 265.33 455.17 266.93 452.97 269.50 453.51 C 270.12 456.21 267.38 458.11 265.45 459.46 C 260.27 462.41 253.16 463.68 247.97 460.08 C 244.10 457.51 243.06 452.26 244.13 447.97 C 245.20 441.23 249.23 434.46 255.73 431.79 M 255.58 434.52 C 251.71 437.56 250.25 442.55 248.74 447.03 C 251.59 447.31 254.73 447.92 257.34 446.32 C 260.63 444.33 263.38 440.47 262.49 436.48 C 261.43 433.88 257.84 432.48 255.58 434.52 Z" />
</g>
<g id="#4c3f3fff">
<path fill="#4c3f3f" opacity="1.00" d=" M 284.89 433.87 C 287.71 430.31 294.48 430.29 295.74 435.27 C 298.11 443.90 294.35 454.22 300.88 461.61 C 298.88 461.42 296.16 462.17 295.05 459.96 C 291.76 454.26 292.92 447.37 292.44 441.09 C 292.14 438.43 292.29 435.16 289.99 433.32 C 288.67 433.80 287.36 434.53 286.82 435.91 C 283.00 443.39 283.86 452.15 281.15 459.97 C 280.84 461.92 278.56 461.68 277.15 462.35 C 275.39 452.51 274.98 442.42 275.35 432.46 C 276.53 432.21 277.72 432.08 278.93 432.05 C 279.67 438.36 279.16 444.74 279.79 451.07 C 280.63 445.20 280.93 438.62 284.89 433.87 Z" />
</g>
<g id="#4c3e3eff">
<path fill="#4c3e3e" opacity="1.00" d=" M 319.69 430.83 C 321.91 430.74 324.90 430.60 325.79 433.19 C 329.02 440.85 328.01 449.95 324.22 457.24 C 321.52 462.56 313.36 464.34 309.11 459.89 C 304.23 454.59 304.03 446.87 304.41 440.08 C 304.63 436.69 305.56 432.07 309.80 432.00 C 308.07 440.59 307.45 450.54 313.07 457.90 C 314.75 460.50 319.19 460.43 320.83 457.81 C 323.76 453.49 323.63 447.97 323.38 442.97 C 323.21 438.66 320.95 434.87 319.69 430.83 Z" />
</g>
<g id="#fefdfdff">
</g>
</svg>
